<svg width="1313" height="120" viewBox="0 0 1313 120" fill="none" xmlns="http://www.w3.org/2000/svg">
<path fill-rule="evenodd" clip-rule="evenodd" d="M30.688 90.7841C25.4025 90.8699 20.1515 89.9186 15.232 87.9842C10.8963 86.2851 7.11639 83.4176 4.31195 79.7001C1.52219 75.8553 0.0122681 71.2304 -0.00402832 66.4802H20.384C20.5029 69.0064 21.5851 71.3911 23.408 73.1442C25.2776 74.731 27.678 75.5526 30.128 75.4442C32.5261 75.5779 34.8977 74.8862 36.848 73.4842C38.4933 72.1737 39.4097 70.1533 39.312 68.0522C39.3658 66.2425 38.6542 64.494 37.352 63.2361C35.9517 61.9054 34.3194 60.8425 32.5359 60.1002C29.8832 59.0174 27.1723 58.0826 24.416 57.3002C20.16 56.0476 16.0043 54.4765 11.9841 52.6002C8.7073 50.9757 5.86581 48.5923 3.69595 45.6482C1.38129 42.5868 0.223968 38.5922 0.223968 33.6642C0.223968 26.3468 2.87463 20.6161 8.17596 16.4721C13.4773 12.3282 20.384 10.2561 28.896 10.2561C37.5573 10.2561 44.5386 12.3282 49.84 16.4721C55.1413 20.6161 57.9786 26.3828 58.352 33.7722H37.632C37.5937 31.4674 36.5753 29.2881 34.8319 27.7802C32.9672 26.2749 30.6183 25.5 28.224 25.6002C26.1932 25.5039 24.1985 26.1621 22.624 27.4482C21.1497 28.8105 20.368 30.7648 20.496 32.7682C20.4728 35.2641 21.8597 37.5596 24.0799 38.7001C27.6452 40.6123 31.3985 42.1512 35.2799 43.2921C39.5068 44.6689 43.6407 46.3163 47.6559 48.2242C50.8875 49.8402 53.7041 52.1778 55.888 55.0562C58.2026 58.0428 59.36 61.8881 59.36 66.5922C59.4072 70.9037 58.2221 75.1392 55.944 78.8001C53.5255 82.5848 50.0905 85.6123 46.032 87.5362C41.2411 89.8022 35.9861 90.9146 30.688 90.7841ZM99.568 90.9001C93.8207 90.9901 88.1421 89.6426 83.0479 86.9802C78.2141 84.4222 74.2116 80.5364 71.5119 75.7802C68.6239 70.5796 67.1741 64.7032 67.312 58.7562C67.1882 52.8214 68.6579 46.962 71.5679 41.7882C74.2967 37.0003 78.3384 33.0932 83.216 30.5282C88.3316 27.8696 94.0273 26.5226 99.792 26.6082C105.557 26.5226 111.252 27.8695 116.368 30.5282C121.245 33.0922 125.287 36.9978 128.016 41.7841C130.926 46.958 132.396 52.8174 132.272 58.7522C132.396 64.6938 130.905 70.558 127.96 75.72C125.187 80.513 121.107 84.4173 116.196 86.9762C111.06 89.6315 105.349 90.9793 99.568 90.9001ZM99.568 74.3242C103.117 74.3715 106.518 72.9051 108.92 70.2921C111.496 67.6042 112.784 63.7588 112.784 58.7562C112.784 53.7535 111.533 49.9081 109.032 47.2202C106.683 44.5987 103.311 43.1273 99.792 43.1881C96.2615 43.0994 92.8671 44.5506 90.492 47.1642C88.0253 49.8148 86.792 53.6788 86.792 58.7562C86.792 63.7562 88.0053 67.6015 90.432 70.2921C92.7296 72.9227 96.0761 74.3982 99.568 74.3202V74.3242ZM230.048 27.5002L190.848 119.676H170.24L184.576 87.8722L159.152 27.5002H180.544L194.996 66.5922L209.328 27.5002H230.048ZM265.44 90.9001C259.693 90.9901 254.014 89.6426 248.92 86.9802C244.086 84.4222 240.084 80.5363 237.384 75.7802C234.496 70.5796 233.046 64.7032 233.184 58.7562C233.06 52.8214 234.53 46.962 237.44 41.7882C240.169 37.0018 244.211 33.0961 249.088 30.5321C254.204 27.8736 259.899 26.5266 265.664 26.6122C271.429 26.5266 277.124 27.8736 282.24 30.5321C287.117 33.0962 291.159 37.0018 293.888 41.7881C296.798 46.9619 298.268 52.8214 298.144 58.7561C298.268 64.6978 296.777 70.562 293.832 75.724C291.06 80.5164 286.981 84.4207 282.072 86.9802C276.935 89.6348 271.222 90.9812 265.44 90.9001H265.44ZM265.44 74.3242C268.989 74.3715 272.39 72.9051 274.792 70.2921C277.368 67.6042 278.656 63.7588 278.656 58.7562C278.656 53.7535 277.405 49.9081 274.904 47.2202C272.555 44.5987 269.183 43.1273 265.664 43.1881C262.134 43.0994 258.739 44.5506 256.364 47.1642C253.897 49.8148 252.664 53.6788 252.664 58.7562C252.664 63.7562 253.877 67.6015 256.304 70.2921C258.602 72.9227 261.948 74.3981 265.44 74.3202V74.3242ZM370.048 27.5002V90.0002H350.896V81.4882C348.858 84.3324 346.143 86.623 342.996 88.1522C339.572 89.8552 335.792 90.719 331.968 90.6721C327.539 90.7617 323.168 89.6592 319.312 87.4802C315.619 85.3152 312.655 82.0981 310.8 78.2401C308.694 73.8002 307.659 68.9286 307.776 64.0161V27.5002H326.816V61.4402C326.816 65.6215 327.899 68.8695 330.064 71.1841C332.34 73.5454 335.524 74.8107 338.8 74.6562C342.111 74.825 345.335 73.56 347.648 71.1841C349.813 68.8695 350.896 65.6215 350.896 61.4402V27.5002H370.048ZM403.76 58.6402C403.633 52.7957 404.88 47.003 407.4 41.7282C409.59 37.1405 413.025 33.2599 417.312 30.5281C421.508 27.9105 426.367 26.5501 431.312 26.6082C435.215 26.5612 439.074 27.4442 442.568 29.1841C445.8 30.7572 448.561 33.1518 450.576 36.1281V7.12015H469.728V90.0002H450.576V81.0402C448.722 84.0857 446.068 86.5648 442.904 88.2082C439.327 90.0624 435.34 90.9881 431.312 90.9002C426.359 90.9568 421.496 89.5757 417.312 86.9242C413.018 84.1483 409.584 80.2293 407.396 75.6082C404.881 70.3118 403.636 64.5019 403.76 58.6401V58.6402ZM450.576 58.7522C450.576 53.9735 449.251 50.2028 446.6 47.4402C444.106 44.7447 440.583 43.2378 436.912 43.2961C433.251 43.2337 429.733 44.718 427.224 47.3842C424.573 50.1095 423.248 53.8615 423.248 58.6402C423.248 63.4188 424.573 67.2082 427.224 70.0081C429.701 72.733 433.23 74.2626 436.912 74.2082C440.583 74.2665 444.106 72.7596 446.6 70.0641C449.251 67.3015 450.576 63.5308 450.576 58.7522ZM512.064 90.9001C506.317 90.9901 500.638 89.6426 495.544 86.9801C490.71 84.4222 486.708 80.5363 484.008 75.7802C481.12 70.5796 479.67 64.7032 479.808 58.7561C479.684 52.8213 481.154 46.9619 484.064 41.7881C486.793 37.0017 490.835 33.0961 495.712 30.5322C500.828 27.8736 506.523 26.5266 512.288 26.6122C518.053 26.5266 523.748 27.8735 528.864 30.5321C533.741 33.0961 537.783 37.0018 540.512 41.7881C543.422 46.9619 544.892 52.8214 544.768 58.7562C544.891 64.6967 543.401 70.5593 540.456 75.7201C537.684 80.5125 533.605 84.4167 528.696 86.9762C523.559 89.6322 517.846 90.98 512.064 90.9001ZM512.064 74.3242C515.613 74.3715 519.014 72.9051 521.416 70.2921C523.992 67.6042 525.28 63.7588 525.28 58.7562C525.28 53.7535 524.029 49.9081 521.528 47.2202C519.179 44.5987 515.807 43.1273 512.288 43.1881C508.758 43.0994 505.363 44.5506 502.988 47.1642C500.527 49.8122 499.296 53.6748 499.296 58.7522C499.296 63.7522 500.509 67.5975 502.936 70.2881C505.231 72.918 508.574 74.3947 512.064 74.3202V74.3242ZM593.04 26.8362C600.357 26.8362 606.2 29.2068 610.568 33.9482C614.936 38.6895 617.12 45.2041 617.12 53.4922V90.0002H598.08V56.0641C598.08 51.8828 596.997 48.6348 594.832 46.3202C592.556 43.9589 589.372 42.6936 586.096 42.8481C582.82 42.6936 579.636 43.9589 577.36 46.3202C575.195 48.6348 574.112 51.8828 574.112 56.0641V90.0002H554.96V27.5002H574.112V35.7881C576.121 32.9684 578.82 30.7122 581.952 29.2361C585.414 27.593 589.208 26.7704 593.04 26.8322V26.8362ZM643.776 0.400146L642.32 25.1522H629.44L627.984 0.400146H643.776ZM690.032 73.7602V90.0002H680.288C673.344 90.0002 667.931 88.3001 664.048 84.9002C660.165 81.5002 658.224 75.9562 658.224 68.2682V43.4081H650.608V27.5002H658.224V12.2722H677.376V27.5002H689.92V43.4001H677.376V68.5002C677.235 69.9735 677.724 71.4377 678.72 72.5321C679.616 73.3535 681.109 73.7642 683.2 73.7642L690.032 73.7602ZM743.568 7.12015V90.0001H724.416V7.12015H743.568ZM785.904 90.9001C780.157 90.9901 774.478 89.6426 769.384 86.9801C764.55 84.4222 760.548 80.5364 757.848 75.7802C754.96 70.5796 753.51 64.7032 753.648 58.7562C753.524 52.8212 754.994 46.9618 757.904 41.788C760.633 37.0017 764.675 33.0961 769.552 30.5322C774.668 27.8736 780.363 26.5266 786.128 26.6122C791.893 26.5266 797.588 27.8736 802.704 30.5321C807.581 33.0962 811.623 37.0018 814.352 41.7881C817.262 46.962 818.732 52.8214 818.608 58.7562C818.731 64.6967 817.241 70.5594 814.296 75.7202C811.524 80.5125 807.445 84.4167 802.536 86.9762C797.399 89.6322 791.686 90.98 785.904 90.9001ZM785.904 74.3242C789.453 74.3715 792.854 72.9051 795.256 70.2921C797.832 67.6042 799.12 63.7588 799.12 58.7562C799.12 53.7535 797.869 49.9081 795.368 47.2202C793.019 44.5987 789.647 43.1273 786.128 43.1881C782.598 43.0994 779.203 44.5506 776.828 47.1642C774.361 49.8148 773.128 53.6788 773.128 58.7562C773.128 63.7562 774.341 67.6015 776.768 70.2921C779.066 72.9227 782.412 74.3981 785.904 74.3202V74.3242ZM854.224 90.9002C849.229 90.9895 844.27 90.0359 839.664 88.1002C835.698 86.4559 832.225 83.8128 829.584 80.4282C827.156 77.2762 825.715 73.4771 825.44 69.5081H844.368C844.561 71.6196 845.665 73.5418 847.392 74.7722C849.311 76.1563 851.635 76.8653 854 76.7881C855.948 76.9065 857.885 76.4173 859.544 75.3882C860.778 74.5908 861.517 73.2172 861.504 71.7481C861.511 69.9624 860.388 68.3675 858.704 67.7722C855.766 66.5672 852.731 65.6118 849.632 64.9162C845.828 64.0736 842.085 62.9711 838.432 61.6162C835.441 60.4558 832.785 58.5699 830.704 56.1281C828.539 53.6268 827.456 50.2482 827.456 45.9922C827.428 42.5002 828.463 39.0822 830.424 36.1923C832.609 33.0742 835.64 30.6455 839.16 29.1922C843.501 27.3781 848.176 26.5004 852.88 26.6161C860.72 26.6161 866.899 28.5575 871.416 32.4402C875.95 36.3583 878.747 41.9127 879.196 47.8882H861.496C861.272 45.8576 860.244 44.0017 858.64 42.7361C856.81 41.3973 854.577 40.7267 852.312 40.8362C850.503 40.7213 848.702 41.1714 847.16 42.1241C845.999 42.9165 845.323 44.2472 845.368 45.6521C845.378 47.4628 846.519 49.0741 848.224 49.6841C851.092 50.8801 854.074 51.7807 857.124 52.3721C860.967 53.317 864.749 54.4952 868.448 55.9002C871.428 57.1064 874.063 59.03 876.12 61.5002C878.32 64.0761 879.459 67.5295 879.536 71.8601C879.582 75.3719 878.503 78.8062 876.456 81.6602C874.194 84.6974 871.13 87.0439 867.608 88.4362C863.36 90.1554 858.806 90.9937 854.224 90.9002ZM950.208 57.7481C950.203 59.6204 950.091 61.4902 949.872 63.3489L906.528 63.3481C906.827 67.2308 908.077 70.1975 910.28 72.2481C912.478 74.3001 915.394 75.4062 918.4 75.3282C923.179 75.3282 926.501 73.3122 928.368 69.2802H948.752C947.723 73.354 945.79 77.1439 943.096 80.3682C940.317 83.696 936.811 86.3413 932.848 88.1002C928.511 90.0146 923.812 90.9697 919.072 90.9001C913.377 91.004 907.749 89.6549 902.72 86.9802C897.982 84.408 894.092 80.5177 891.52 75.7802C888.739 70.545 887.35 64.6826 887.488 58.7562C887.351 52.8362 888.719 46.9785 891.464 41.732C894.004 36.9898 897.879 33.096 902.608 30.5322C907.674 27.8487 913.34 26.4996 919.072 26.6122C924.681 26.5067 930.226 27.8149 935.196 30.4162C939.845 32.8983 943.677 36.671 946.232 41.2802C948.968 46.3284 950.339 52.0036 950.208 57.7441L950.208 57.7481ZM930.608 52.7082C930.737 49.7202 929.5 46.8356 927.248 44.8682C924.906 42.8899 921.912 41.8521 918.848 41.9561C915.89 41.8679 913.003 42.8637 910.728 44.7562C908.427 46.8083 906.97 49.6423 906.64 52.7082H930.608ZM1018.86 73.7642V90.0002H1009.12C1002.18 90.0002 996.763 88.3001 992.88 84.9002C988.997 81.5002 987.056 75.9575 987.056 68.2722V43.4081H979.44V27.5002H987.056V12.2722H1006.21V27.5002H1018.75V43.4001H1006.21V68.5002C1006.07 69.9735 1006.56 71.4377 1007.55 72.5321C1008.45 73.3535 1009.94 73.7642 1012.03 73.7642H1018.86ZM1067.92 26.8362C1075.09 26.8362 1080.84 29.2068 1085.17 33.9482C1089.5 38.6895 1091.67 45.2041 1091.67 53.4922V90.0001H1072.63V56.0641C1072.63 51.8828 1071.55 48.6348 1069.38 46.3202C1067.1 43.959 1063.92 42.6936 1060.64 42.8481C1057.37 42.6936 1054.18 43.9589 1051.91 46.3202C1049.74 48.6348 1048.66 51.8828 1048.66 56.0641V90.0001H1029.51V7.12015H1048.66V35.9001C1050.7 33.0533 1053.44 30.7781 1056.61 29.2921C1060.14 27.6135 1064.01 26.7717 1067.92 26.8322V26.8362ZM1163.9 57.7481C1163.9 59.6199 1163.79 61.4896 1163.57 63.3483L1120.22 63.3481C1120.52 67.2308 1121.77 70.1975 1123.98 72.2481C1126.17 74.3001 1129.09 75.4062 1132.1 75.3282C1136.87 75.3282 1140.2 73.3122 1142.06 69.2802H1162.45C1161.42 73.3537 1159.49 77.1435 1156.8 80.3682C1154.02 83.6965 1150.51 86.3418 1146.54 88.1002C1142.21 90.0146 1137.51 90.9697 1132.77 90.9001C1127.07 91.0041 1121.45 89.6549 1116.42 86.9802C1111.68 84.4081 1107.79 80.5177 1105.22 75.7802C1102.43 70.5449 1101.05 64.6826 1101.18 58.7562C1101.05 52.8365 1102.41 46.9788 1105.16 41.7323C1107.7 36.9899 1111.57 33.096 1116.3 30.5321C1121.37 27.8487 1127.04 26.4996 1132.77 26.6122C1138.38 26.5073 1143.93 27.8169 1148.9 30.4201C1153.54 32.9029 1157.37 36.6755 1159.93 41.2841C1162.66 46.3312 1164.03 52.0049 1163.9 57.7442V57.7481ZM1144.3 52.7082C1144.43 49.7202 1143.2 46.8356 1140.94 44.8682C1138.6 42.8899 1135.61 41.8521 1132.54 41.9561C1129.59 41.868 1126.7 42.8638 1124.42 44.7562C1122.12 46.8084 1120.67 49.6424 1120.34 52.7082H1144.3ZM1253.73 26.8362C1261.49 26.8362 1267.67 29.1881 1272.26 33.8922C1276.86 38.5962 1279.15 45.1295 1279.15 53.4922V90.0002H1260.11V56.0641C1260.11 52.0321 1259.05 48.9148 1256.92 46.7122C1254.79 44.5095 1251.86 43.4095 1248.13 43.4121C1244.39 43.4121 1241.46 44.5121 1239.34 46.7122C1237.21 48.9121 1236.14 52.0295 1236.14 56.0641V90.0002H1217.1V56.0641C1217.1 52.0321 1216.04 48.9148 1213.91 46.7122C1211.78 44.5095 1208.85 43.4095 1205.12 43.4121C1201.39 43.4121 1198.46 44.5121 1196.33 46.7122C1194.2 48.9121 1193.14 52.0295 1193.14 56.0641V90.0002H1173.98V27.5002H1193.14V35.3401C1195.13 32.6811 1197.75 30.5478 1200.75 29.1241C1204.07 27.5508 1207.72 26.7637 1211.39 26.8242C1215.78 26.7475 1220.12 27.7881 1223.99 29.8481C1227.65 31.8297 1230.67 34.8236 1232.67 38.4722C1234.89 34.9891 1237.93 32.1044 1241.52 30.0722C1245.23 27.9172 1249.44 26.7982 1253.73 26.8322L1253.73 26.8362ZM1301.55 90.9001C1298.53 91.0226 1295.57 89.9575 1293.32 87.9322C1291.24 86.0664 1290.08 83.389 1290.13 80.5962C1290.07 77.7542 1291.23 75.0232 1293.32 73.0962C1295.56 71.0388 1298.52 69.9514 1301.55 70.0721C1304.55 69.9648 1307.47 71.0524 1309.67 73.0962C1311.76 75.0233 1312.92 77.7542 1312.86 80.5962C1312.92 83.389 1311.75 86.0663 1309.67 87.9321C1307.46 89.9441 1304.54 91.0094 1301.55 90.9001Z" fill="url(#paint0_linear_9_17346)"/>
<defs>
<linearGradient id="paint0_linear_9_17346" x1="24.9405" y1="57.1755" x2="1274.79" y2="57.1755" gradientUnits="userSpaceOnUse">
<stop stop-color="#FE6783"/>
<stop offset="1" stop-color="#FFBF84"/>
</linearGradient>
</defs>
</svg>
