<svg width="854" height="666" viewBox="0 0 854 666" fill="none" xmlns="http://www.w3.org/2000/svg">
    <rect width="854" height="666" fill="#0D0D0D"/>
    <path fill-rule="evenodd" clip-rule="evenodd" d="M853 666H66V502C65.9959 490.242 67.1789 478.494 69.531 466.953C74.0877 444.689 82.9854 423.54 95.716 404.715C114.602 376.741 141.194 354.843 172.271 341.674C182.797 337.225 193.738 333.829 204.933 331.535C216.474 329.182 228.222 327.997 240 328H853V666Z" fill="#AFAAC1"/>
    <path fill-rule="evenodd" clip-rule="evenodd" d="M854 666H82V502C81.9947 491.21 83.0812 480.407 85.2429 469.795C89.4321 449.314 97.6156 429.86 109.326 412.543C126.693 386.818 151.147 366.682 179.726 354.574C189.405 350.483 199.465 347.36 209.759 345.251C220.37 343.087 231.171 341.998 242 342H854V666Z" fill="black"/>
    <path fill-rule="evenodd" clip-rule="evenodd" d="M853 666H143V496C142.97 476.873 148.682 458.175 159.399 442.328C169.817 426.894 184.487 414.811 201.632 407.544C213.454 402.541 226.163 399.975 239 400H853V666Z" fill="#1E1E1E"/>
    <path fill-rule="evenodd" clip-rule="evenodd" d="M833.8 461H400C372.386 461 350 438.614 350 411C350 383.386 372.386 361 400 361H833.8C840.39 360.988 846.917 362.287 853 364.821V457.179C846.917 459.713 840.39 461.012 833.8 461H833.8Z" fill="black"/>
    <path fill-rule="evenodd" clip-rule="evenodd" d="M562 414C562 411.515 562.879 409.393 564.636 407.636C566.393 405.879 568.515 405 571 405H668C670.485 405 672.607 405.879 674.364 407.636C676.121 409.393 677 411.515 677 414C677 416.485 676.121 418.607 674.364 420.364C672.607 422.121 670.485 423 668 423H571C568.515 423 566.393 422.121 564.636 420.364C562.879 418.607 562 416.485 562 414Z" fill="#2B2B29"/>
    <circle cx="723" cy="414" r="17" fill="#171717"/>
    <circle cx="723" cy="414" r="16" stroke="#2B2B29" stroke-width="2"/>
    <circle cx="723" cy="414" r="6" fill="#232A5E"/>
    <path fill-rule="evenodd" clip-rule="evenodd" d="M847 631H191C182.163 631 175 623.837 175 615V573C175 564.163 182.163 557 191 557H847C849.426 556.993 851.82 557.543 854 558.608V629.391C851.821 630.456 849.426 631.007 847 631Z" fill="#323234"/>
    <path d="M223.877 600.361H216.431L214.759 605H212.342L219.129 587.227H221.18L227.979 605H225.574L223.877 600.361ZM217.139 598.433H223.182L220.154 590.12L217.139 598.433ZM240.186 600.361H232.74L231.067 605H228.65L235.438 587.227H237.488L244.288 605H241.883L240.186 600.361ZM233.448 598.433H239.49L236.463 590.12L233.448 598.433Z" fill="white"/>
    <path d="M263.353 461.475C262.249 462.559 260.96 463.101 259.485 463.101C257.601 463.101 256.092 462.456 254.959 461.167C253.826 459.868 253.26 458.12 253.26 455.923C253.26 454.526 253.562 453.247 254.168 452.085C254.783 450.913 255.638 450.005 256.731 449.36C257.825 448.706 259.056 448.379 260.423 448.379C261.829 448.379 263.079 448.73 264.173 449.434C265.267 450.137 266.116 451.147 266.722 452.466C267.327 453.784 267.635 455.293 267.645 456.992V458.56C267.645 462.114 266.761 464.907 264.993 466.938C263.226 468.97 260.721 470.054 257.479 470.19L256.438 470.205V466.675L257.376 466.66C261.058 466.494 263.05 464.766 263.353 461.475ZM260.525 459.863C261.209 459.863 261.795 459.688 262.283 459.336C262.781 458.984 263.157 458.56 263.411 458.062V456.318C263.411 454.883 263.138 453.77 262.591 452.979C262.044 452.188 261.312 451.792 260.394 451.792C259.544 451.792 258.846 452.183 258.299 452.964C257.752 453.735 257.479 454.707 257.479 455.879C257.479 457.041 257.742 457.998 258.27 458.75C258.807 459.492 259.559 459.863 260.525 459.863ZM271.058 467.92C271.058 467.246 271.282 466.699 271.731 466.279C272.19 465.859 272.762 465.649 273.445 465.649C274.139 465.649 274.71 465.859 275.159 466.279C275.618 466.699 275.848 467.246 275.848 467.92C275.848 468.584 275.623 469.126 275.174 469.546C274.725 469.956 274.148 470.161 273.445 470.161C272.752 470.161 272.181 469.956 271.731 469.546C271.282 469.126 271.058 468.584 271.058 467.92ZM271.058 455.923C271.058 455.249 271.282 454.702 271.731 454.282C272.19 453.862 272.762 453.652 273.445 453.652C274.139 453.652 274.71 453.862 275.159 454.282C275.618 454.702 275.848 455.249 275.848 455.923C275.848 456.587 275.623 457.129 275.174 457.549C274.725 457.959 274.148 458.164 273.445 458.164C272.752 458.164 272.181 457.959 271.731 457.549C271.282 457.129 271.058 456.587 271.058 455.923ZM291.668 461.973H294.085V465.386H291.668V470H287.435V465.386H278.689L278.499 462.72L287.391 448.672H291.668V461.973ZM282.718 461.973H287.435V454.443L287.156 454.927L282.718 461.973ZM306.653 470H302.42V453.682L297.366 455.249V451.807L306.199 448.643H306.653V470Z" fill="white"/>
    <path fill-rule="evenodd" clip-rule="evenodd" d="M482.559 590.829V588.029C482.56 585.328 481.12 582.832 478.781 581.482C476.442 580.131 473.56 580.131 471.222 581.482C468.883 582.833 467.443 585.329 467.444 588.03V590.829H464.959V597.488C464.959 603.034 469.454 607.529 475 607.529C480.545 607.529 485.041 603.034 485.041 597.488V590.829H482.559ZM475.794 600.229V602.701H474.207V600.231C472.811 599.836 471.92 598.471 472.12 597.034C472.32 595.597 473.549 594.527 475 594.527C476.45 594.527 477.679 595.597 477.879 597.034C478.078 598.471 477.188 599.836 475.792 600.231L475.794 600.229ZM480.973 590.829H469.028V588.029C469.028 584.731 471.702 582.057 475 582.057C478.298 582.057 480.972 584.731 480.972 588.029L480.973 590.829Z" fill="#80E770"/>
    <path d="M57 66.21C55.06 66.21 53.29 65.76 51.69 64.86C50.09 63.94 48.82 62.67 47.88 61.05C46.96 59.41 46.5 57.57 46.5 55.53C46.5 53.49 46.96 51.66 47.88 50.04C48.82 48.4 50.09 47.13 51.69 46.23C53.29 45.31 55.06 44.85 57 44.85C58.96 44.85 60.74 45.31 62.34 46.23C63.94 47.13 65.2 48.39 66.12 50.01C67.04 51.63 67.5 53.47 67.5 55.53C67.5 57.59 67.04 59.43 66.12 61.05C65.2 62.67 63.94 63.94 62.34 64.86C60.74 65.76 58.96 66.21 57 66.21ZM57 63.84C58.46 63.84 59.77 63.5 60.93 62.82C62.11 62.14 63.03 61.17 63.69 59.91C64.37 58.65 64.71 57.19 64.71 55.53C64.71 53.85 64.37 52.39 63.69 51.15C63.03 49.89 62.12 48.92 60.96 48.24C59.8 47.56 58.48 47.22 57 47.22C55.52 47.22 54.2 47.56 53.04 48.24C51.88 48.92 50.96 49.89 50.28 51.15C49.62 52.39 49.29 53.85 49.29 55.53C49.29 57.19 49.62 58.65 50.28 59.91C50.96 61.17 51.88 62.14 53.04 62.82C54.22 63.5 55.54 63.84 57 63.84ZM79.1139 49.26C81.1139 49.26 82.7339 49.87 83.9739 51.09C85.2139 52.29 85.8339 54.03 85.8339 56.31V66H83.1339V56.7C83.1339 55.06 82.7239 53.81 81.9039 52.95C81.0839 52.07 79.9639 51.63 78.5439 51.63C77.1039 51.63 75.9539 52.08 75.0939 52.98C74.2539 53.88 73.8339 55.19 73.8339 56.91V66H71.1039V49.56H73.8339V51.9C74.3739 51.06 75.1039 50.41 76.0239 49.95C76.9639 49.49 77.9939 49.26 79.1139 49.26ZM105.293 57.15C105.293 57.67 105.263 58.22 105.203 58.8H92.0634C92.1634 60.42 92.7134 61.69 93.7134 62.61C94.7334 63.51 95.9634 63.96 97.4034 63.96C98.5834 63.96 99.5634 63.69 100.343 63.15C101.143 62.59 101.703 61.85 102.023 60.93H104.963C104.523 62.51 103.643 63.8 102.323 64.8C101.003 65.78 99.3634 66.27 97.4034 66.27C95.8434 66.27 94.4434 65.92 93.2034 65.22C91.9834 64.52 91.0234 63.53 90.3234 62.25C89.6234 60.95 89.2734 59.45 89.2734 57.75C89.2734 56.05 89.6134 54.56 90.2934 53.28C90.9734 52 91.9234 51.02 93.1434 50.34C94.3834 49.64 95.8034 49.29 97.4034 49.29C98.9634 49.29 100.343 49.63 101.543 50.31C102.743 50.99 103.663 51.93 104.303 53.13C104.963 54.31 105.293 55.65 105.293 57.15ZM102.473 56.58C102.473 55.54 102.243 54.65 101.783 53.91C101.323 53.15 100.693 52.58 99.8934 52.2C99.1134 51.8 98.2434 51.6 97.2834 51.6C95.9034 51.6 94.7234 52.04 93.7434 52.92C92.7834 53.8 92.2334 55.02 92.0934 56.58H102.473ZM119.625 63.78H126.945V66H116.895V45.09H119.625V63.78ZM131.254 46.89C130.734 46.89 130.294 46.71 129.934 46.35C129.574 45.99 129.394 45.55 129.394 45.03C129.394 44.51 129.574 44.07 129.934 43.71C130.294 43.35 130.734 43.17 131.254 43.17C131.754 43.17 132.174 43.35 132.514 43.71C132.874 44.07 133.054 44.51 133.054 45.03C133.054 45.55 132.874 45.99 132.514 46.35C132.174 46.71 131.754 46.89 131.254 46.89ZM132.574 49.56V66H129.844V49.56H132.574ZM145.237 49.26C147.237 49.26 148.857 49.87 150.097 51.09C151.337 52.29 151.957 54.03 151.957 56.31V66H149.257V56.7C149.257 55.06 148.847 53.81 148.027 52.95C147.207 52.07 146.087 51.63 144.667 51.63C143.227 51.63 142.077 52.08 141.217 52.98C140.377 53.88 139.957 55.19 139.957 56.91V66H137.227V49.56H139.957V51.9C140.497 51.06 141.227 50.41 142.147 49.95C143.087 49.49 144.117 49.26 145.237 49.26ZM165.596 66L159.146 58.74V66H156.416V43.8H159.146V56.85L165.476 49.56H169.286L161.546 57.75L169.316 66H165.596Z" fill="#0FC65C"/>
    <path d="M84.76 179.36H62.52L58.84 190H47.08L67.16 134.08H80.2L100.28 190H88.44L84.76 179.36ZM81.72 170.4L73.64 147.04L65.56 170.4H81.72ZM118.986 181.12H137.386V190H107.786V134.16H118.986V181.12ZM155.704 181.12H174.104V190H144.504V134.16H155.704V181.12ZM244.686 134.16L225.806 170.56V190H214.606V170.56L195.646 134.16H208.286L220.286 159.68L232.206 134.16H244.686ZM270.825 190.72C266.558 190.72 262.718 189.787 259.305 187.92C255.892 186 253.198 183.307 251.225 179.84C249.305 176.373 248.345 172.373 248.345 167.84C248.345 163.307 249.332 159.307 251.305 155.84C253.332 152.373 256.078 149.707 259.545 147.84C263.012 145.92 266.878 144.96 271.145 144.96C275.412 144.96 279.278 145.92 282.745 147.84C286.212 149.707 288.932 152.373 290.905 155.84C292.932 159.307 293.945 163.307 293.945 167.84C293.945 172.373 292.905 176.373 290.825 179.84C288.798 183.307 286.025 186 282.505 187.92C279.038 189.787 275.145 190.72 270.825 190.72ZM270.825 180.96C272.852 180.96 274.745 180.48 276.505 179.52C278.318 178.507 279.758 177.013 280.825 175.04C281.892 173.067 282.425 170.667 282.425 167.84C282.425 163.627 281.305 160.4 279.065 158.16C276.878 155.867 274.185 154.72 270.985 154.72C267.785 154.72 265.092 155.867 262.905 158.16C260.772 160.4 259.705 163.627 259.705 167.84C259.705 172.053 260.745 175.307 262.825 177.6C264.958 179.84 267.625 180.96 270.825 180.96ZM344.001 145.68V190H332.721V184.4C331.281 186.32 329.387 187.84 327.041 188.96C324.747 190.027 322.241 190.56 319.521 190.56C316.054 190.56 312.987 189.84 310.321 188.4C307.654 186.907 305.547 184.747 304.001 181.92C302.507 179.04 301.761 175.627 301.761 171.68V145.68H312.961V170.08C312.961 173.6 313.841 176.32 315.601 178.24C317.361 180.107 319.761 181.04 322.801 181.04C325.894 181.04 328.321 180.107 330.081 178.24C331.841 176.32 332.721 173.6 332.721 170.08V145.68H344.001ZM371.394 162C371.394 156.507 372.62 151.6 375.074 147.28C377.58 142.907 380.967 139.52 385.234 137.12C389.554 134.667 394.38 133.44 399.714 133.44C405.954 133.44 411.42 135.04 416.114 138.24C420.807 141.44 424.087 145.867 425.954 151.52H413.074C411.794 148.853 409.98 146.853 407.634 145.52C405.34 144.187 402.674 143.52 399.634 143.52C396.38 143.52 393.474 144.293 390.914 145.84C388.407 147.333 386.434 149.467 384.994 152.24C383.607 155.013 382.914 158.267 382.914 162C382.914 165.68 383.607 168.933 384.994 171.76C386.434 174.533 388.407 176.693 390.914 178.24C393.474 179.733 396.38 180.48 399.634 180.48C402.674 180.48 405.34 179.813 407.634 178.48C409.98 177.093 411.794 175.067 413.074 172.4H425.954C424.087 178.107 420.807 182.56 416.114 185.76C411.474 188.907 406.007 190.48 399.714 190.48C394.38 190.48 389.554 189.28 385.234 186.88C380.967 184.427 377.58 181.04 375.074 176.72C372.62 172.4 371.394 167.493 371.394 162ZM446.72 152.56C448.16 150.213 450.027 148.373 452.32 147.04C454.667 145.707 457.333 145.04 460.32 145.04V156.8H457.36C453.84 156.8 451.173 157.627 449.36 159.28C447.6 160.933 446.72 163.813 446.72 167.92V190H435.52V145.68H446.72V152.56ZM509.064 166.88C509.064 168.48 508.957 169.92 508.744 171.2H476.344C476.61 174.4 477.73 176.907 479.704 178.72C481.677 180.533 484.104 181.44 486.984 181.44C491.144 181.44 494.104 179.653 495.864 176.08H507.944C506.664 180.347 504.21 183.867 500.584 186.64C496.957 189.36 492.504 190.72 487.224 190.72C482.957 190.72 479.117 189.787 475.704 187.92C472.344 186 469.704 183.307 467.784 179.84C465.917 176.373 464.984 172.373 464.984 167.84C464.984 163.253 465.917 159.227 467.784 155.76C469.65 152.293 472.264 149.627 475.624 147.76C478.984 145.893 482.85 144.96 487.224 144.96C491.437 144.96 495.197 145.867 498.504 147.68C501.864 149.493 504.45 152.08 506.264 155.44C508.13 158.747 509.064 162.56 509.064 166.88ZM497.464 163.68C497.41 160.8 496.37 158.507 494.344 156.8C492.317 155.04 489.837 154.16 486.904 154.16C484.13 154.16 481.784 155.013 479.864 156.72C477.997 158.373 476.85 160.693 476.424 163.68H497.464ZM514.359 167.68C514.359 163.2 515.239 159.227 516.999 155.76C518.812 152.293 521.239 149.627 524.279 147.76C527.372 145.893 530.812 144.96 534.599 144.96C537.905 144.96 540.785 145.627 543.239 146.96C545.745 148.293 547.745 149.973 549.239 152V145.68H560.519V190H549.239V183.52C547.799 185.6 545.799 187.333 543.239 188.72C540.732 190.053 537.825 190.72 534.519 190.72C530.785 190.72 527.372 189.76 524.279 187.84C521.239 185.92 518.812 183.227 516.999 179.76C515.239 176.24 514.359 172.213 514.359 167.68ZM549.239 167.84C549.239 165.12 548.705 162.8 547.639 160.88C546.572 158.907 545.132 157.413 543.319 156.4C541.505 155.333 539.559 154.8 537.479 154.8C535.399 154.8 533.479 155.307 531.719 156.32C529.959 157.333 528.519 158.827 527.399 160.8C526.332 162.72 525.799 165.013 525.799 167.68C525.799 170.347 526.332 172.693 527.399 174.72C528.519 176.693 529.959 178.213 531.719 179.28C533.532 180.347 535.452 180.88 537.479 180.88C539.559 180.88 541.505 180.373 543.319 179.36C545.132 178.293 546.572 176.8 547.639 174.88C548.705 172.907 549.239 170.56 549.239 167.84ZM584.498 154.88V176.32C584.498 177.813 584.844 178.907 585.538 179.6C586.284 180.24 587.511 180.56 589.218 180.56H594.418V190H587.378C577.938 190 573.218 185.413 573.218 176.24V154.88H567.938V145.68H573.218V134.72H584.498V145.68H594.418V154.88H584.498ZM643.673 166.88C643.673 168.48 643.566 169.92 643.353 171.2H610.953C611.22 174.4 612.34 176.907 614.313 178.72C616.286 180.533 618.713 181.44 621.593 181.44C625.753 181.44 628.713 179.653 630.473 176.08H642.553C641.273 180.347 638.82 183.867 635.193 186.64C631.566 189.36 627.113 190.72 621.833 190.72C617.566 190.72 613.726 189.787 610.313 187.92C606.953 186 604.313 183.307 602.393 179.84C600.526 176.373 599.593 172.373 599.593 167.84C599.593 163.253 600.526 159.227 602.393 155.76C604.26 152.293 606.873 149.627 610.233 147.76C613.593 145.893 617.46 144.96 621.833 144.96C626.046 144.96 629.806 145.867 633.113 147.68C636.473 149.493 639.06 152.08 640.873 155.44C642.74 158.747 643.673 162.56 643.673 166.88ZM632.073 163.68C632.02 160.8 630.98 158.507 628.953 156.8C626.926 155.04 624.446 154.16 621.513 154.16C618.74 154.16 616.393 155.013 614.473 156.72C612.606 158.373 611.46 160.693 611.033 163.68H632.073ZM656.808 190.56C654.781 190.56 653.101 189.947 651.768 188.72C650.488 187.44 649.848 185.867 649.848 184C649.848 182.133 650.488 180.587 651.768 179.36C653.101 178.08 654.781 177.44 656.808 177.44C658.781 177.44 660.408 178.08 661.688 179.36C662.968 180.587 663.608 182.133 663.608 184C663.608 185.867 662.968 187.44 661.688 188.72C660.408 189.947 658.781 190.56 656.808 190.56Z" fill="#919191"/>
    <path d="M76.64 282.56C71.4133 282.56 66.6133 281.333 62.24 278.88C57.8666 276.427 54.4 273.04 51.84 268.72C49.28 264.347 48 259.413 48 253.92C48 248.48 49.28 243.6 51.84 239.28C54.4 234.907 57.8666 231.493 62.24 229.04C66.6133 226.587 71.4133 225.36 76.64 225.36C81.92 225.36 86.72 226.587 91.04 229.04C95.4133 231.493 98.8533 234.907 101.36 239.28C103.92 243.6 105.2 248.48 105.2 253.92C105.2 259.413 103.92 264.347 101.36 268.72C98.8533 273.04 95.4133 276.427 91.04 278.88C86.6666 281.333 81.8666 282.56 76.64 282.56ZM76.64 272.56C80 272.56 82.96 271.813 85.52 270.32C88.08 268.773 90.08 266.587 91.52 263.76C92.96 260.933 93.68 257.653 93.68 253.92C93.68 250.187 92.96 246.933 91.52 244.16C90.08 241.333 88.08 239.173 85.52 237.68C82.96 236.187 80 235.44 76.64 235.44C73.28 235.44 70.2933 236.187 67.68 237.68C65.12 239.173 63.12 241.333 61.68 244.16C60.24 246.933 59.52 250.187 59.52 253.92C59.52 257.653 60.24 260.933 61.68 263.76C63.12 266.587 65.12 268.773 67.68 270.32C70.2933 271.813 73.28 272.56 76.64 272.56ZM138.092 237.04C143.372 237.04 147.639 238.72 150.892 242.08C154.146 245.387 155.772 250.027 155.772 256V282H144.572V257.52C144.572 254 143.692 251.307 141.932 249.44C140.172 247.52 137.772 246.56 134.732 246.56C131.639 246.56 129.186 247.52 127.372 249.44C125.612 251.307 124.732 254 124.732 257.52V282H113.532V237.68H124.732V243.2C126.226 241.28 128.119 239.787 130.412 238.72C132.759 237.6 135.319 237.04 138.092 237.04ZM207.623 258.88C207.623 260.48 207.516 261.92 207.303 263.2H174.903C175.17 266.4 176.29 268.907 178.263 270.72C180.236 272.533 182.663 273.44 185.543 273.44C189.703 273.44 192.663 271.653 194.423 268.08H206.503C205.223 272.347 202.77 275.867 199.143 278.64C195.516 281.36 191.063 282.72 185.783 282.72C181.516 282.72 177.676 281.787 174.263 279.92C170.903 278 168.263 275.307 166.343 271.84C164.476 268.373 163.543 264.373 163.543 259.84C163.543 255.253 164.476 251.227 166.343 247.76C168.21 244.293 170.823 241.627 174.183 239.76C177.543 237.893 181.41 236.96 185.783 236.96C189.996 236.96 193.756 237.867 197.063 239.68C200.423 241.493 203.01 244.08 204.823 247.44C206.69 250.747 207.623 254.56 207.623 258.88ZM196.023 255.68C195.97 252.8 194.93 250.507 192.903 248.8C190.876 247.04 188.396 246.16 185.463 246.16C182.69 246.16 180.343 247.013 178.423 248.72C176.556 250.373 175.41 252.693 174.983 255.68H196.023ZM246.061 273.12H264.461V282H234.861V226.16H246.061V273.12ZM277.259 232.4C275.286 232.4 273.633 231.787 272.299 230.56C271.019 229.28 270.379 227.707 270.379 225.84C270.379 223.973 271.019 222.427 272.299 221.2C273.633 219.92 275.286 219.28 277.259 219.28C279.233 219.28 280.859 219.92 282.139 221.2C283.473 222.427 284.139 223.973 284.139 225.84C284.139 227.707 283.473 229.28 282.139 230.56C280.859 231.787 279.233 232.4 277.259 232.4ZM282.779 237.68V282H271.579V237.68H282.779ZM318.405 237.04C323.685 237.04 327.952 238.72 331.205 242.08C334.458 245.387 336.085 250.027 336.085 256V282H324.885V257.52C324.885 254 324.005 251.307 322.245 249.44C320.485 247.52 318.085 246.56 315.045 246.56C311.952 246.56 309.498 247.52 307.685 249.44C305.925 251.307 305.045 254 305.045 257.52V282H293.845V237.68H305.045V243.2C306.538 241.28 308.432 239.787 310.725 238.72C313.072 237.6 315.632 237.04 318.405 237.04ZM372.976 282L357.936 263.12V282H346.736V222.8H357.936V256.48L372.816 237.68H387.376L367.856 259.92L387.536 282H372.976Z" fill="white"/>
    </svg>
    