<svg width="854" height="666" viewBox="0 0 854 666" fill="none" xmlns="http://www.w3.org/2000/svg">
    <rect width="854" height="666" fill="#0D0D0D"/>
    <path d="M31.09 56.53C31.09 54.49 31.55 52.66 32.47 51.04C33.39 49.4 34.64 48.12 36.22 47.2C37.82 46.28 39.59 45.82 41.53 45.82C43.81 45.82 45.8 46.37 47.5 47.47C49.2 48.57 50.44 50.13 51.2201 52.15H47.95C47.37 50.89 46.53 49.92 45.43 49.24C44.35 48.56 43.05 48.22 41.53 48.22C40.07 48.22 38.76 48.56 37.6 49.24C36.44 49.92 35.53 50.89 34.87 52.15C34.21 53.39 33.88 54.85 33.88 56.53C33.88 58.19 34.21 59.65 34.87 60.91C35.53 62.15 36.44 63.11 37.6 63.79C38.76 64.47 40.07 64.81 41.53 64.81C43.05 64.81 44.35 64.48 45.43 63.82C46.53 63.14 47.37 62.17 47.95 60.91H51.2201C50.44 62.91 49.2 64.46 47.5 65.56C45.8 66.64 43.81 67.18 41.53 67.18C39.59 67.18 37.82 66.73 36.22 65.83C34.64 64.91 33.39 63.64 32.47 62.02C31.55 60.4 31.09 58.57 31.09 56.53ZM62.4539 67.27C60.9139 67.27 59.5139 66.92 58.2539 66.22C57.0139 65.52 56.0339 64.53 55.3139 63.25C54.6139 61.95 54.2639 60.45 54.2639 58.75C54.2639 57.07 54.6239 55.59 55.3439 54.31C56.0839 53.01 57.0839 52.02 58.3439 51.34C59.6039 50.64 61.0139 50.29 62.5739 50.29C64.1339 50.29 65.5439 50.64 66.8039 51.34C68.0639 52.02 69.0539 53 69.7739 54.28C70.5139 55.56 70.8839 57.05 70.8839 58.75C70.8839 60.45 70.5039 61.95 69.7439 63.25C69.0039 64.53 67.9939 65.52 66.7139 66.22C65.4339 66.92 64.0139 67.27 62.4539 67.27ZM62.4539 64.87C63.4339 64.87 64.3539 64.64 65.2139 64.18C66.0739 63.72 66.7639 63.03 67.2839 62.11C67.8239 61.19 68.0939 60.07 68.0939 58.75C68.0939 57.43 67.8339 56.31 67.3139 55.39C66.7939 54.47 66.1139 53.79 65.2739 53.35C64.4339 52.89 63.5239 52.66 62.5439 52.66C61.5439 52.66 60.6239 52.89 59.7839 53.35C58.9639 53.79 58.3039 54.47 57.8039 55.39C57.3039 56.31 57.0539 57.43 57.0539 58.75C57.0539 60.09 57.2939 61.22 57.7739 62.14C58.2739 63.06 58.9339 63.75 59.7539 64.21C60.5739 64.65 61.4739 64.87 62.4539 64.87ZM77.2033 44.8V67H74.4733V44.8H77.2033ZM84.5861 44.8V67H81.8561V44.8H84.5861ZM104.239 58.15C104.239 58.67 104.209 59.22 104.149 59.8H91.009C91.109 61.42 91.659 62.69 92.659 63.61C93.679 64.51 94.909 64.96 96.349 64.96C97.529 64.96 98.509 64.69 99.289 64.15C100.089 63.59 100.649 62.85 100.969 61.93H103.909C103.469 63.51 102.589 64.8 101.269 65.8C99.949 66.78 98.309 67.27 96.349 67.27C94.789 67.27 93.389 66.92 92.149 66.22C90.929 65.52 89.969 64.53 89.269 63.25C88.569 61.95 88.219 60.45 88.219 58.75C88.219 57.05 88.559 55.56 89.239 54.28C89.919 53 90.869 52.02 92.089 51.34C93.329 50.64 94.749 50.29 96.349 50.29C97.909 50.29 99.289 50.63 100.489 51.31C101.689 51.99 102.609 52.93 103.249 54.13C103.909 55.31 104.239 56.65 104.239 58.15ZM101.419 57.58C101.419 56.54 101.189 55.65 100.729 54.91C100.269 54.15 99.639 53.58 98.839 53.2C98.059 52.8 97.189 52.6 96.229 52.6C94.849 52.6 93.669 53.04 92.689 53.92C91.729 54.8 91.179 56.02 91.039 57.58H101.419ZM106.822 58.75C106.822 57.05 107.162 55.57 107.842 54.31C108.522 53.03 109.462 52.04 110.662 51.34C111.882 50.64 113.272 50.29 114.832 50.29C116.852 50.29 118.512 50.78 119.812 51.76C121.132 52.74 122.002 54.1 122.422 55.84H119.482C119.202 54.84 118.652 54.05 117.832 53.47C117.032 52.89 116.032 52.6 114.832 52.6C113.272 52.6 112.012 53.14 111.052 54.22C110.092 55.28 109.612 56.79 109.612 58.75C109.612 60.73 110.092 62.26 111.052 63.34C112.012 64.42 113.272 64.96 114.832 64.96C116.032 64.96 117.032 64.68 117.832 64.12C118.632 63.56 119.182 62.76 119.482 61.72H122.422C121.982 63.4 121.102 64.75 119.782 65.77C118.462 66.77 116.812 67.27 114.832 67.27C113.272 67.27 111.882 66.92 110.662 66.22C109.462 65.52 108.522 64.53 107.842 63.25C107.162 61.97 106.822 60.47 106.822 58.75ZM129.395 52.81V62.5C129.395 63.3 129.565 63.87 129.905 64.21C130.245 64.53 130.835 64.69 131.675 64.69H133.685V67H131.225C129.705 67 128.565 66.65 127.805 65.95C127.045 65.25 126.665 64.1 126.665 62.5V52.81H124.535V50.56H126.665V46.42H129.395V50.56H133.685V52.81H129.395ZM151.621 67.21C150.241 67.21 149.001 66.97 147.901 66.49C146.821 65.99 145.971 65.31 145.351 64.45C144.731 63.57 144.411 62.56 144.391 61.42H147.301C147.401 62.4 147.801 63.23 148.501 63.91C149.221 64.57 150.261 64.9 151.621 64.9C152.921 64.9 153.941 64.58 154.681 63.94C155.441 63.28 155.821 62.44 155.821 61.42C155.821 60.62 155.601 59.97 155.161 59.47C154.721 58.97 154.171 58.59 153.511 58.33C152.851 58.07 151.961 57.79 150.841 57.49C149.461 57.13 148.351 56.77 147.511 56.41C146.691 56.05 145.981 55.49 145.381 54.73C144.801 53.95 144.511 52.91 144.511 51.61C144.511 50.47 144.801 49.46 145.381 48.58C145.961 47.7 146.771 47.02 147.811 46.54C148.871 46.06 150.081 45.82 151.441 45.82C153.401 45.82 155.001 46.31 156.241 47.29C157.501 48.27 158.211 49.57 158.371 51.19H155.371C155.271 50.39 154.851 49.69 154.111 49.09C153.371 48.47 152.391 48.16 151.171 48.16C150.031 48.16 149.101 48.46 148.381 49.06C147.661 49.64 147.301 50.46 147.301 51.52C147.301 52.28 147.511 52.9 147.931 53.38C148.371 53.86 148.901 54.23 149.521 54.49C150.161 54.73 151.051 55.01 152.191 55.33C153.571 55.71 154.681 56.09 155.521 56.47C156.361 56.83 157.081 57.4 157.681 58.18C158.281 58.94 158.581 59.98 158.581 61.3C158.581 62.32 158.311 63.28 157.771 64.18C157.231 65.08 156.431 65.81 155.371 66.37C154.311 66.93 153.061 67.21 151.621 67.21ZM177.178 50.56V67H174.448V64.57C173.928 65.41 173.198 66.07 172.258 66.55C171.338 67.01 170.318 67.24 169.198 67.24C167.918 67.24 166.768 66.98 165.748 66.46C164.728 65.92 163.918 65.12 163.318 64.06C162.738 63 162.448 61.71 162.448 60.19V50.56H165.148V59.83C165.148 61.45 165.558 62.7 166.378 63.58C167.198 64.44 168.318 64.87 169.738 64.87C171.198 64.87 172.348 64.42 173.188 63.52C174.028 62.62 174.448 61.31 174.448 59.59V50.56H177.178ZM184.518 53.62C185.078 52.64 185.898 51.84 186.978 51.22C188.058 50.6 189.288 50.29 190.668 50.29C192.148 50.29 193.478 50.64 194.658 51.34C195.838 52.04 196.768 53.03 197.448 54.31C198.128 55.57 198.468 57.04 198.468 58.72C198.468 60.38 198.128 61.86 197.448 63.16C196.768 64.46 195.828 65.47 194.628 66.19C193.448 66.91 192.128 67.27 190.668 67.27C189.248 67.27 187.998 66.96 186.918 66.34C185.858 65.72 185.058 64.93 184.518 63.97V67H181.788V44.8H184.518V53.62ZM195.678 58.72C195.678 57.48 195.428 56.4 194.928 55.48C194.428 54.56 193.748 53.86 192.888 53.38C192.048 52.9 191.118 52.66 190.098 52.66C189.098 52.66 188.168 52.91 187.308 53.41C186.468 53.89 185.788 54.6 185.268 55.54C184.768 56.46 184.518 57.53 184.518 58.75C184.518 59.99 184.768 61.08 185.268 62.02C185.788 62.94 186.468 63.65 187.308 64.15C188.168 64.63 189.098 64.87 190.098 64.87C191.118 64.87 192.048 64.63 192.888 64.15C193.748 63.65 194.428 62.94 194.928 62.02C195.428 61.08 195.678 59.98 195.678 58.72ZM207.881 67.27C206.621 67.27 205.491 67.06 204.491 66.64C203.491 66.2 202.701 65.6 202.121 64.84C201.541 64.06 201.221 63.17 201.161 62.17H203.981C204.061 62.99 204.441 63.66 205.121 64.18C205.821 64.7 206.731 64.96 207.851 64.96C208.891 64.96 209.711 64.73 210.311 64.27C210.911 63.81 211.211 63.23 211.211 62.53C211.211 61.81 210.891 61.28 210.251 60.94C209.611 60.58 208.621 60.23 207.281 59.89C206.061 59.57 205.061 59.25 204.281 58.93C203.521 58.59 202.861 58.1 202.301 57.46C201.761 56.8 201.491 55.94 201.491 54.88C201.491 54.04 201.741 53.27 202.241 52.57C202.741 51.87 203.451 51.32 204.371 50.92C205.291 50.5 206.341 50.29 207.521 50.29C209.341 50.29 210.811 50.75 211.931 51.67C213.051 52.59 213.651 53.85 213.731 55.45H211.001C210.941 54.59 210.591 53.9 209.951 53.38C209.331 52.86 208.491 52.6 207.431 52.6C206.451 52.6 205.671 52.81 205.091 53.23C204.511 53.65 204.221 54.2 204.221 54.88C204.221 55.42 204.391 55.87 204.731 56.23C205.091 56.57 205.531 56.85 206.051 57.07C206.591 57.27 207.331 57.5 208.271 57.76C209.451 58.08 210.411 58.4 211.151 58.72C211.891 59.02 212.521 59.48 213.041 60.1C213.581 60.72 213.861 61.53 213.881 62.53C213.881 63.43 213.631 64.24 213.131 64.96C212.631 65.68 211.921 66.25 211.001 66.67C210.101 67.07 209.061 67.27 207.881 67.27ZM216.715 58.75C216.715 57.05 217.055 55.57 217.735 54.31C218.415 53.03 219.355 52.04 220.555 51.34C221.775 50.64 223.165 50.29 224.725 50.29C226.745 50.29 228.405 50.78 229.705 51.76C231.025 52.74 231.895 54.1 232.315 55.84H229.375C229.095 54.84 228.545 54.05 227.725 53.47C226.925 52.89 225.925 52.6 224.725 52.6C223.165 52.6 221.905 53.14 220.945 54.22C219.985 55.28 219.505 56.79 219.505 58.75C219.505 60.73 219.985 62.26 220.945 63.34C221.905 64.42 223.165 64.96 224.725 64.96C225.925 64.96 226.925 64.68 227.725 64.12C228.525 63.56 229.075 62.76 229.375 61.72H232.315C231.875 63.4 230.995 64.75 229.675 65.77C228.355 66.77 226.705 67.27 224.725 67.27C223.165 67.27 221.775 66.92 220.555 66.22C219.355 65.52 218.415 64.53 217.735 63.25C217.055 61.97 216.715 60.47 216.715 58.75ZM238.688 53.23C239.168 52.29 239.848 51.56 240.728 51.04C241.628 50.52 242.718 50.26 243.998 50.26V53.08H243.278C240.218 53.08 238.688 54.74 238.688 58.06V67H235.958V50.56H238.688V53.23ZM248.559 47.89C248.039 47.89 247.599 47.71 247.239 47.35C246.879 46.99 246.699 46.55 246.699 46.03C246.699 45.51 246.879 45.07 247.239 44.71C247.599 44.35 248.039 44.17 248.559 44.17C249.059 44.17 249.479 44.35 249.819 44.71C250.179 45.07 250.359 45.51 250.359 46.03C250.359 46.55 250.179 46.99 249.819 47.35C249.479 47.71 249.059 47.89 248.559 47.89ZM249.879 50.56V67H247.149V50.56H249.879ZM257.262 53.62C257.822 52.64 258.642 51.84 259.722 51.22C260.802 50.6 262.032 50.29 263.412 50.29C264.892 50.29 266.222 50.64 267.402 51.34C268.582 52.04 269.512 53.03 270.192 54.31C270.872 55.57 271.212 57.04 271.212 58.72C271.212 60.38 270.872 61.86 270.192 63.16C269.512 64.46 268.572 65.47 267.372 66.19C266.192 66.91 264.872 67.27 263.412 67.27C261.992 67.27 260.742 66.96 259.662 66.34C258.602 65.72 257.802 64.93 257.262 63.97V67H254.532V44.8H257.262V53.62ZM268.422 58.72C268.422 57.48 268.172 56.4 267.672 55.48C267.172 54.56 266.492 53.86 265.632 53.38C264.792 52.9 263.862 52.66 262.842 52.66C261.842 52.66 260.912 52.91 260.052 53.41C259.212 53.89 258.532 54.6 258.012 55.54C257.512 56.46 257.262 57.53 257.262 58.75C257.262 59.99 257.512 61.08 258.012 62.02C258.532 62.94 259.212 63.65 260.052 64.15C260.912 64.63 261.842 64.87 262.842 64.87C263.862 64.87 264.792 64.63 265.632 64.15C266.492 63.65 267.172 62.94 267.672 62.02C268.172 61.08 268.422 59.98 268.422 58.72ZM289.805 58.15C289.805 58.67 289.775 59.22 289.715 59.8H276.575C276.675 61.42 277.225 62.69 278.225 63.61C279.245 64.51 280.475 64.96 281.915 64.96C283.095 64.96 284.075 64.69 284.855 64.15C285.655 63.59 286.215 62.85 286.535 61.93H289.475C289.035 63.51 288.155 64.8 286.835 65.8C285.515 66.78 283.875 67.27 281.915 67.27C280.355 67.27 278.955 66.92 277.715 66.22C276.495 65.52 275.535 64.53 274.835 63.25C274.135 61.95 273.785 60.45 273.785 58.75C273.785 57.05 274.125 55.56 274.805 54.28C275.485 53 276.435 52.02 277.655 51.34C278.895 50.64 280.315 50.29 281.915 50.29C283.475 50.29 284.855 50.63 286.055 51.31C287.255 51.99 288.175 52.93 288.815 54.13C289.475 55.31 289.805 56.65 289.805 58.15ZM286.985 57.58C286.985 56.54 286.755 55.65 286.295 54.91C285.835 54.15 285.205 53.58 284.405 53.2C283.625 52.8 282.755 52.6 281.795 52.6C280.415 52.6 279.235 53.04 278.255 53.92C277.295 54.8 276.745 56.02 276.605 57.58H286.985ZM296.139 53.23C296.619 52.29 297.299 51.56 298.179 51.04C299.079 50.52 300.169 50.26 301.449 50.26V53.08H300.729C297.669 53.08 296.139 54.74 296.139 58.06V67H293.409V50.56H296.139V53.23ZM310.42 67.27C309.16 67.27 308.03 67.06 307.03 66.64C306.03 66.2 305.24 65.6 304.66 64.84C304.08 64.06 303.76 63.17 303.7 62.17H306.52C306.6 62.99 306.98 63.66 307.66 64.18C308.36 64.7 309.27 64.96 310.39 64.96C311.43 64.96 312.25 64.73 312.85 64.27C313.45 63.81 313.75 63.23 313.75 62.53C313.75 61.81 313.43 61.28 312.79 60.94C312.15 60.58 311.16 60.23 309.82 59.89C308.6 59.57 307.6 59.25 306.82 58.93C306.06 58.59 305.4 58.1 304.84 57.46C304.3 56.8 304.03 55.94 304.03 54.88C304.03 54.04 304.28 53.27 304.78 52.57C305.28 51.87 305.99 51.32 306.91 50.92C307.83 50.5 308.88 50.29 310.06 50.29C311.88 50.29 313.35 50.75 314.47 51.67C315.59 52.59 316.19 53.85 316.27 55.45H313.54C313.48 54.59 313.13 53.9 312.49 53.38C311.87 52.86 311.03 52.6 309.97 52.6C308.99 52.6 308.21 52.81 307.63 53.23C307.05 53.65 306.76 54.2 306.76 54.88C306.76 55.42 306.93 55.87 307.27 56.23C307.63 56.57 308.07 56.85 308.59 57.07C309.13 57.27 309.87 57.5 310.81 57.76C311.99 58.08 312.95 58.4 313.69 58.72C314.43 59.02 315.06 59.48 315.58 60.1C316.12 60.72 316.4 61.53 316.42 62.53C316.42 63.43 316.17 64.24 315.67 64.96C315.17 65.68 314.46 66.25 313.54 66.67C312.64 67.07 311.6 67.27 310.42 67.27Z" fill="#0FC65C"/>
    <path d="M48.43 204.8V216.16H66.75V226.72H48.43V239.04H69.15V250H34.75V193.84H69.15V204.8H48.43ZM134.991 204.88C140.538 204.88 144.938 206.56 148.191 209.92C151.498 213.28 153.151 217.947 153.151 223.92V250H139.551V225.76C139.551 222.88 138.778 220.667 137.231 219.12C135.738 217.52 133.658 216.72 130.991 216.72C128.325 216.72 126.218 217.52 124.671 219.12C123.178 220.667 122.431 222.88 122.431 225.76V250H108.831V225.76C108.831 222.88 108.058 220.667 106.511 219.12C105.018 217.52 102.938 216.72 100.271 216.72C97.6046 216.72 95.498 217.52 93.9513 219.12C92.458 220.667 91.7113 222.88 91.7113 225.76V250H78.0313V205.36H91.7113V210.96C93.098 209.093 94.9113 207.627 97.1513 206.56C99.3913 205.44 101.925 204.88 104.751 204.88C108.111 204.88 111.098 205.6 113.711 207.04C116.378 208.48 118.458 210.533 119.951 213.2C121.498 210.747 123.605 208.747 126.271 207.2C128.938 205.653 131.845 204.88 134.991 204.88ZM159.999 227.6C159.999 223.013 160.852 218.987 162.559 215.52C164.319 212.053 166.692 209.387 169.679 207.52C172.665 205.653 175.999 204.72 179.679 204.72C182.825 204.72 185.572 205.36 187.919 206.64C190.319 207.92 192.159 209.6 193.439 211.68V205.36H207.119V250H193.439V243.68C192.105 245.76 190.239 247.44 187.839 248.72C185.492 250 182.745 250.64 179.599 250.64C175.972 250.64 172.665 249.707 169.679 247.84C166.692 245.92 164.319 243.227 162.559 239.76C160.852 236.24 159.999 232.187 159.999 227.6ZM193.439 227.68C193.439 224.267 192.479 221.573 190.559 219.6C188.692 217.627 186.399 216.64 183.679 216.64C180.959 216.64 178.639 217.627 176.719 219.6C174.852 221.52 173.919 224.187 173.919 227.6C173.919 231.013 174.852 233.733 176.719 235.76C178.639 237.733 180.959 238.72 183.679 238.72C186.399 238.72 188.692 237.733 190.559 235.76C192.479 233.787 193.439 231.093 193.439 227.68ZM223.896 200.72C221.496 200.72 219.522 200.027 217.976 198.64C216.482 197.2 215.736 195.44 215.736 193.36C215.736 191.227 216.482 189.467 217.976 188.08C219.522 186.64 221.496 185.92 223.896 185.92C226.242 185.92 228.162 186.64 229.656 188.08C231.202 189.467 231.976 191.227 231.976 193.36C231.976 195.44 231.202 197.2 229.656 198.64C228.162 200.027 226.242 200.72 223.896 200.72ZM230.696 205.36V250H217.016V205.36H230.696ZM254.289 190.8V250H240.609V190.8H254.289ZM282.363 250.64C278.47 250.64 275.003 249.973 271.963 248.64C268.923 247.307 266.523 245.493 264.763 243.2C263.003 240.853 262.016 238.24 261.803 235.36H275.323C275.483 236.907 276.203 238.16 277.483 239.12C278.763 240.08 280.336 240.56 282.203 240.56C283.91 240.56 285.216 240.24 286.123 239.6C287.083 238.907 287.563 238.027 287.563 236.96C287.563 235.68 286.896 234.747 285.563 234.16C284.23 233.52 282.07 232.827 279.083 232.08C275.883 231.333 273.216 230.56 271.083 229.76C268.95 228.907 267.11 227.6 265.563 225.84C264.016 224.027 263.243 221.6 263.243 218.56C263.243 216 263.936 213.68 265.323 211.6C266.763 209.467 268.843 207.787 271.563 206.56C274.336 205.333 277.616 204.72 281.403 204.72C287.003 204.72 291.403 206.107 294.603 208.88C297.856 211.653 299.723 215.333 300.203 219.92H287.563C287.35 218.373 286.656 217.147 285.483 216.24C284.363 215.333 282.87 214.88 281.003 214.88C279.403 214.88 278.176 215.2 277.323 215.84C276.47 216.427 276.043 217.253 276.043 218.32C276.043 219.6 276.71 220.56 278.043 221.2C279.43 221.84 281.563 222.48 284.443 223.12C287.75 223.973 290.443 224.827 292.523 225.68C294.603 226.48 296.416 227.813 297.963 229.68C299.563 231.493 300.39 233.947 300.443 237.04C300.443 239.653 299.697 242 298.203 244.08C296.763 246.107 294.656 247.707 291.883 248.88C289.163 250.053 285.99 250.64 282.363 250.64ZM315.213 250.64C312.813 250.64 310.839 249.947 309.293 248.56C307.799 247.12 307.053 245.36 307.053 243.28C307.053 241.147 307.799 239.36 309.293 237.92C310.839 236.48 312.813 235.76 315.213 235.76C317.559 235.76 319.479 236.48 320.973 237.92C322.519 239.36 323.293 241.147 323.293 243.28C323.293 245.36 322.519 247.12 320.973 248.56C319.479 249.947 317.559 250.64 315.213 250.64ZM77.55 304.92C77.55 308.173 76.8034 311.16 75.31 313.88C73.8167 316.547 71.5234 318.707 68.43 320.36C65.3367 322.013 61.4967 322.84 56.91 322.84H48.43V343H34.75V286.84H56.91C61.39 286.84 65.1767 287.613 68.27 289.16C71.3634 290.707 73.6834 292.84 75.23 295.56C76.7767 298.28 77.55 301.4 77.55 304.92ZM55.87 311.96C58.4834 311.96 60.43 311.347 61.71 310.12C62.99 308.893 63.63 307.16 63.63 304.92C63.63 302.68 62.99 300.947 61.71 299.72C60.43 298.493 58.4834 297.88 55.87 297.88H48.43V311.96H55.87ZM112.112 297.88C117.232 297.88 121.339 299.587 124.432 303C127.525 306.36 129.072 311 129.072 316.92V343H115.472V318.76C115.472 315.773 114.699 313.453 113.152 311.8C111.605 310.147 109.525 309.32 106.912 309.32C104.299 309.32 102.219 310.147 100.672 311.8C99.1252 313.453 98.3519 315.773 98.3519 318.76V343H84.6719V283.8H98.3519V304.36C99.7386 302.387 101.632 300.813 104.032 299.64C106.432 298.467 109.125 297.88 112.112 297.88ZM158.898 343.64C154.525 343.64 150.578 342.707 147.058 340.84C143.591 338.973 140.845 336.307 138.818 332.84C136.845 329.373 135.858 325.32 135.858 320.68C135.858 316.093 136.871 312.067 138.898 308.6C140.925 305.08 143.698 302.387 147.218 300.52C150.738 298.653 154.685 297.72 159.058 297.72C163.431 297.72 167.378 298.653 170.898 300.52C174.418 302.387 177.191 305.08 179.218 308.6C181.245 312.067 182.258 316.093 182.258 320.68C182.258 325.267 181.218 329.32 179.138 332.84C177.111 336.307 174.311 338.973 170.738 340.84C167.218 342.707 163.271 343.64 158.898 343.64ZM158.898 331.8C161.511 331.8 163.725 330.84 165.538 328.92C167.405 327 168.338 324.253 168.338 320.68C168.338 317.107 167.431 314.36 165.618 312.44C163.858 310.52 161.671 309.56 159.058 309.56C156.391 309.56 154.178 310.52 152.418 312.44C150.658 314.307 149.778 317.053 149.778 320.68C149.778 324.253 150.631 327 152.338 328.92C154.098 330.84 156.285 331.8 158.898 331.8ZM216.716 297.88C221.942 297.88 226.102 299.587 229.196 303C232.342 306.36 233.916 311 233.916 316.92V343H220.316V318.76C220.316 315.773 219.542 313.453 217.996 311.8C216.449 310.147 214.369 309.32 211.756 309.32C209.142 309.32 207.062 310.147 205.516 311.8C203.969 313.453 203.196 315.773 203.196 318.76V343H189.516V298.36H203.196V304.28C204.582 302.307 206.449 300.76 208.796 299.64C211.142 298.467 213.782 297.88 216.716 297.88ZM285.502 319.96C285.502 321.24 285.422 322.573 285.262 323.96H254.302C254.515 326.733 255.395 328.867 256.942 330.36C258.542 331.8 260.489 332.52 262.782 332.52C266.195 332.52 268.569 331.08 269.902 328.2H284.462C283.715 331.133 282.355 333.773 280.382 336.12C278.462 338.467 276.035 340.307 273.102 341.64C270.169 342.973 266.889 343.64 263.262 343.64C258.889 343.64 254.995 342.707 251.582 340.84C248.169 338.973 245.502 336.307 243.582 332.84C241.662 329.373 240.702 325.32 240.702 320.68C240.702 316.04 241.635 311.987 243.502 308.52C245.422 305.053 248.089 302.387 251.502 300.52C254.915 298.653 258.835 297.72 263.262 297.72C267.582 297.72 271.422 298.627 274.782 300.44C278.142 302.253 280.755 304.84 282.622 308.2C284.542 311.56 285.502 315.48 285.502 319.96ZM271.502 316.36C271.502 314.013 270.702 312.147 269.102 310.76C267.502 309.373 265.502 308.68 263.102 308.68C260.809 308.68 258.862 309.347 257.262 310.68C255.715 312.013 254.755 313.907 254.382 316.36H271.502ZM361.912 307.96L359.672 318.44H369.272V330.76H357.032L354.392 343H341.592L344.232 330.76H330.952L328.312 343H315.512L318.152 330.76H306.312V318.44H320.792L323.032 307.96H311.432V295.64H325.592L328.152 283.8H340.952L338.392 295.64H351.672L354.232 283.8H367.032L364.472 295.64H374.392V307.96H361.912ZM349.112 307.96H335.832L333.592 318.44H346.872L349.112 307.96ZM400.176 343.64C396.282 343.64 392.816 342.973 389.776 341.64C386.736 340.307 384.336 338.493 382.576 336.2C380.816 333.853 379.829 331.24 379.616 328.36H393.136C393.296 329.907 394.016 331.16 395.296 332.12C396.576 333.08 398.149 333.56 400.016 333.56C401.722 333.56 403.029 333.24 403.936 332.6C404.896 331.907 405.376 331.027 405.376 329.96C405.376 328.68 404.709 327.747 403.376 327.16C402.042 326.52 399.882 325.827 396.896 325.08C393.696 324.333 391.029 323.56 388.896 322.76C386.762 321.907 384.922 320.6 383.376 318.84C381.829 317.027 381.056 314.6 381.056 311.56C381.056 309 381.749 306.68 383.136 304.6C384.576 302.467 386.656 300.787 389.376 299.56C392.149 298.333 395.429 297.72 399.216 297.72C404.816 297.72 409.216 299.107 412.416 301.88C415.669 304.653 417.536 308.333 418.016 312.92H405.376C405.162 311.373 404.469 310.147 403.296 309.24C402.176 308.333 400.682 307.88 398.816 307.88C397.216 307.88 395.989 308.2 395.136 308.84C394.282 309.427 393.856 310.253 393.856 311.32C393.856 312.6 394.522 313.56 395.856 314.2C397.242 314.84 399.376 315.48 402.256 316.12C405.562 316.973 408.256 317.827 410.336 318.68C412.416 319.48 414.229 320.813 415.776 322.68C417.376 324.493 418.202 326.947 418.256 330.04C418.256 332.653 417.509 335 416.016 337.08C414.576 339.107 412.469 340.707 409.696 341.88C406.976 343.053 403.802 343.64 400.176 343.64ZM433.025 343.64C430.625 343.64 428.652 342.947 427.105 341.56C425.612 340.12 424.865 338.36 424.865 336.28C424.865 334.147 425.612 332.36 427.105 330.92C428.652 329.48 430.625 328.76 433.025 328.76C435.372 328.76 437.292 329.48 438.785 330.92C440.332 332.36 441.105 334.147 441.105 336.28C441.105 338.36 440.332 340.12 438.785 341.56C437.292 342.947 435.372 343.64 433.025 343.64Z" fill="#919191"/>
    <path d="M69.71 426.08H48.75L45.39 436H31.07L51.39 379.84H67.23L87.55 436H73.07L69.71 426.08ZM66.19 415.52L59.23 394.96L52.35 415.52H66.19ZM107.414 376.8V436H93.7344V376.8H107.414ZM131.008 376.8V436H117.328V376.8H131.008ZM206.035 379.84L186.595 417.44V436H172.915V417.44L153.475 379.84H168.995L179.875 403.36L190.675 379.84H206.035ZM231.867 436.64C227.494 436.64 223.547 435.707 220.027 433.84C216.56 431.973 213.814 429.307 211.787 425.84C209.814 422.373 208.827 418.32 208.827 413.68C208.827 409.093 209.84 405.067 211.867 401.6C213.894 398.08 216.667 395.387 220.187 393.52C223.707 391.653 227.654 390.72 232.027 390.72C236.4 390.72 240.347 391.653 243.867 393.52C247.387 395.387 250.16 398.08 252.187 401.6C254.214 405.067 255.227 409.093 255.227 413.68C255.227 418.267 254.187 422.32 252.107 425.84C250.08 429.307 247.28 431.973 243.707 433.84C240.187 435.707 236.24 436.64 231.867 436.64ZM231.867 424.8C234.48 424.8 236.694 423.84 238.507 421.92C240.374 420 241.307 417.253 241.307 413.68C241.307 410.107 240.4 407.36 238.587 405.44C236.827 403.52 234.64 402.56 232.027 402.56C229.36 402.56 227.147 403.52 225.387 405.44C223.627 407.307 222.747 410.053 222.747 413.68C222.747 417.253 223.6 420 225.307 421.92C227.067 423.84 229.254 424.8 231.867 424.8ZM306.564 391.36V436H292.884V429.92C291.498 431.893 289.604 433.493 287.204 434.72C284.858 435.893 282.244 436.48 279.364 436.48C275.951 436.48 272.938 435.733 270.324 434.24C267.711 432.693 265.684 430.48 264.244 427.6C262.804 424.72 262.084 421.333 262.084 417.44V391.36H275.684V415.6C275.684 418.587 276.458 420.907 278.004 422.56C279.551 424.213 281.631 425.04 284.244 425.04C286.911 425.04 289.018 424.213 290.564 422.56C292.111 420.907 292.884 418.587 292.884 415.6V391.36H306.564ZM330.071 398.8C331.671 396.347 333.671 394.427 336.071 393.04C338.471 391.6 341.137 390.88 344.071 390.88V405.36H340.311C336.897 405.36 334.337 406.107 332.631 407.6C330.924 409.04 330.071 411.6 330.071 415.28V436H316.391V391.36H330.071V398.8ZM368.769 436.64C364.876 436.64 361.409 435.973 358.369 434.64C355.329 433.307 352.929 431.493 351.169 429.2C349.409 426.853 348.423 424.24 348.209 421.36H361.729C361.889 422.907 362.609 424.16 363.889 425.12C365.169 426.08 366.743 426.56 368.609 426.56C370.316 426.56 371.623 426.24 372.529 425.6C373.489 424.907 373.969 424.027 373.969 422.96C373.969 421.68 373.303 420.747 371.969 420.16C370.636 419.52 368.476 418.827 365.489 418.08C362.289 417.333 359.623 416.56 357.489 415.76C355.356 414.907 353.516 413.6 351.969 411.84C350.423 410.027 349.649 407.6 349.649 404.56C349.649 402 350.343 399.68 351.729 397.6C353.169 395.467 355.249 393.787 357.969 392.56C360.743 391.333 364.023 390.72 367.809 390.72C373.409 390.72 377.809 392.107 381.009 394.88C384.263 397.653 386.129 401.333 386.609 405.92H373.969C373.756 404.373 373.063 403.147 371.889 402.24C370.769 401.333 369.276 400.88 367.409 400.88C365.809 400.88 364.583 401.2 363.729 401.84C362.876 402.427 362.449 403.253 362.449 404.32C362.449 405.6 363.116 406.56 364.449 407.2C365.836 407.84 367.969 408.48 370.849 409.12C374.156 409.973 376.849 410.827 378.929 411.68C381.009 412.48 382.823 413.813 384.369 415.68C385.969 417.493 386.796 419.947 386.849 423.04C386.849 425.653 386.103 428 384.609 430.08C383.169 432.107 381.063 433.707 378.289 434.88C375.569 436.053 372.396 436.64 368.769 436.64ZM401.619 436.64C399.219 436.64 397.245 435.947 395.699 434.56C394.205 433.12 393.459 431.36 393.459 429.28C393.459 427.147 394.205 425.36 395.699 423.92C397.245 422.48 399.219 421.76 401.619 421.76C403.965 421.76 405.885 422.48 407.379 423.92C408.925 425.36 409.699 427.147 409.699 429.28C409.699 431.36 408.925 433.12 407.379 434.56C405.885 435.947 403.965 436.64 401.619 436.64Z" fill="white"/>
    </svg>
    